<svg width="462" height="393" viewBox="0 0 462 393" fill="none" xmlns="http://www.w3.org/2000/svg">
<path d="M244.671 392.985C244.671 390.103 244.671 387.891 244.671 385.672C244.454 304.43 244.265 223.194 244.007 141.952C243.902 108.889 243.755 75.8181 243.35 42.7615C243.266 36.0623 245.516 30.8145 250.281 26.5089C263.11 14.9248 278.482 7.5626 294.113 0.737751C299.165 -1.46742 302.072 1.48445 303.518 6.11111C307.899 20.1516 312.539 34.1293 316.466 48.2954C320.959 64.4991 324.795 80.8844 328.931 97.1859C329.476 99.3212 330.091 101.443 331.111 105.19C332.844 102.071 333.878 100.382 334.752 98.6094C348.978 69.8167 363.288 41.0658 377.284 12.1614C379.485 7.61843 381.938 6.39023 386.06 8.9164C394.18 13.885 403.242 17.9045 410.09 24.2688C448.898 60.34 466.583 104.834 460.001 157.779C457.269 179.754 447.039 199.231 435.552 217.926C421.982 240.012 405.66 259.977 388.282 279.14C385.075 282.678 382.091 286.411 378.954 290.005C375.167 294.339 372.211 294.855 368.473 290.522C359.627 280.257 351.319 269.531 342.69 259.07C340.37 256.258 342.319 254.771 343.905 252.776C355.078 238.714 366.782 225.023 377.116 210.368C389.337 193.034 398.652 173.997 400.531 152.517C401.384 142.748 399.783 132.748 399.057 122.873C398.917 120.926 397.687 119.063 395.996 116.914C372.575 156.509 352.968 197.94 331.035 239.67C322.056 217.207 313.615 196.069 305.167 174.939H302.449C302.212 177.158 302.449 179.663 302.449 181.882C302.414 236.363 302.351 290.85 302.533 345.33C302.554 350.605 301.317 354.548 296.978 357.57C280.663 368.91 264.396 380.319 248.087 391.673C247.382 392.169 246.445 392.329 244.691 392.992L244.671 392.985Z" fill="white"/>
<path d="M0 156.126C13.4931 157.773 25.811 159.266 38.1219 160.781C43.8228 161.486 50.9015 160.453 54.8257 163.482C58.505 166.322 58.7568 173.504 60.6664 178.724C66.64 195.069 76.2229 209.32 86.3025 223.355C104.769 249.052 127.649 270.394 152.719 291.227C153.04 288.275 153.516 285.993 153.516 283.704C153.558 212.377 153.516 141.051 153.649 69.7245C153.656 65.0206 151.823 62.3267 147.486 61.5799C140.722 60.4144 133.847 59.87 127.11 58.5999C124.9 58.1811 121.787 56.7923 121.095 55.0545C114.807 39.2468 108.952 23.2577 102.999 7.31748C102.747 6.63353 102.761 5.85187 102.531 4.33741C105.636 3.43711 108.63 2.07618 111.736 1.75515C149.739 -2.202 182.342 9.41121 209.454 36.1691C211.175 37.865 211.895 41.2847 211.895 43.9019C211.986 143.34 211.937 242.771 211.923 342.209C211.923 356.935 211.993 371.654 212 386.38C212 393.554 210.125 394.755 203.963 390.672C186.406 379.052 168.625 367.697 151.697 355.211C110.043 324.496 72.3687 289.678 41.6264 247.684C23.5447 222.985 9.61093 196.5 2.16141 166.762C1.37799 163.642 0.888347 160.453 0.0279801 156.133L0 156.126Z" fill="#F2BC57"/>
</svg>
